<svg width="317" height="497" viewBox="0 0 317 497" fill="none" xmlns="http://www.w3.org/2000/svg">
<path d="M95.2335 317H218.823L235.031 481.657C235.031 481.657 188.799 497 157.862 497C127.877 497 79.0306 481.657 79.0306 481.657L95.2335 317Z" fill="#E0A788"/>
<path d="M95.2335 317H218.823L230.43 434.923C166.602 470.075 153.248 462.431 84.5623 425.442L95.2335 317Z" fill="#B77F6E"/>
<path d="M42.4811 271.006C17.0306 199.5 3.90999 210.311 1.03063 166.5C-1.48084 128.287 -0.969378 100.5 21.0306 70.5C43.0306 40.5 53.1907 53.4698 53.1907 53.4698C51.7393 19.2786 89.9007 -0.278905 159.617 0.00300627C221.9 3.16271 270.705 32.5 276.031 57C303.031 69.4722 305.755 118.784 305.531 161C305.291 206.061 281.031 227.5 270.705 271.006C248.278 365.5 136.665 310.861 42.4811 271.006Z" fill="#181818"/>
<path d="M270.811 352.5C293.306 320.547 288.775 200.534 270.811 122.011C252.846 43.4866 72.293 43.1732 47.6779 122.011C23.0629 200.848 25.2592 320.465 47.6779 352.5C67.1983 380.394 106.099 431 159.39 431C212.681 431 241.999 393.424 270.811 352.5Z" fill="#E0A788"/>
<path d="M287.969 212C87.9688 159.5 259.969 79.5 92.4688 76C32.4688 102 30.5306 179.5 30.5306 204L23.0306 151.5L67.5306 78C67.5306 78 83.4867 76 92.4688 76L137.531 29.5L262.531 58L287.969 212Z" fill="#181818"/>
<path d="M92.4688 76C259.969 79.5 87.9688 159.5 287.969 212L262.531 58L137.531 29.5C137.531 29.5 110.823 57.0596 92.4688 76ZM92.4688 76C83.4867 76 67.5306 78 67.5306 78L23.0306 151.5L30.5306 204C30.5306 179.5 32.4688 102 92.4688 76Z" stroke="#181818"/>
<path d="M194.267 197.061C202.321 192.937 237.865 187.334 260.4 199.163C264.473 201.95 270.825 208.747 274.829 208.748C274.829 208.748 279.719 208.997 282.368 208.997C282.721 208.997 283.198 209.511 283.198 209.511C283.208 209.537 284.842 214.228 284.325 215.471C283.978 216.307 277.732 219.125 277.732 219.125C276.33 219.964 275.922 221.718 275.76 223.297C276.223 249.09 270.975 261.578 251.957 277.462C227.753 294.05 197.414 290.711 178.488 254.998C174.46 244.174 173.997 241.785 173.756 227.876C173.919 226.079 174.118 225.144 174.808 223.704C175.115 221.915 175.731 220.5 174.808 219.846C172.198 218.2 166.253 217.723 156.926 217.723C147.599 217.723 141.653 218.2 139.044 219.846C138.121 220.5 138.736 221.915 139.044 223.704C139.734 225.144 139.932 226.079 140.096 227.876C139.855 241.785 139.392 244.174 135.363 254.998C116.438 290.711 86.0992 294.05 61.8946 277.462C42.8772 261.578 37.6287 249.09 38.0919 223.297C37.93 221.718 37.5222 219.964 36.1202 219.125C36.1202 219.125 29.874 216.307 29.5265 215.471C29.0096 214.228 30.644 209.538 30.6534 209.511C30.6534 209.511 31.1309 208.997 31.4835 208.997C34.133 208.997 39.0226 208.748 39.0226 208.748C43.0268 208.747 49.3783 201.95 53.4513 199.163C75.9863 187.334 111.531 192.937 119.585 197.061C127.465 200.174 136.595 210.984 136.595 210.984C137.61 211.948 139.044 212.098 139.044 212.098C139.105 212.091 149.509 210.84 156.926 210.984C164.342 210.84 174.745 212.091 174.808 212.098C174.808 212.098 176.242 211.948 177.257 210.984C177.257 210.984 186.387 200.174 194.267 197.061ZM111.609 202.122C99.8328 198.645 80.2734 197.059 62.7022 203.22C56.2982 205.971 53.4363 208.233 49.3302 213.251C38.6304 225.546 46.9596 257.999 64.0177 269.65C82.411 285.266 103.536 283.314 119.596 267.857C128.87 257.62 133.215 250.53 134.706 230.001C134.879 225.238 133.985 222.049 131.581 217.128C127.21 209.869 122.051 206.026 111.609 202.122ZM251.15 203.22C233.578 197.059 214.019 198.645 202.242 202.122C191.801 206.026 186.641 209.869 182.271 217.128C179.867 222.049 178.973 225.238 179.146 230.001C180.637 250.53 184.982 257.62 194.256 267.857C210.316 283.315 231.442 285.266 249.835 269.65C266.893 257.999 275.222 225.547 264.523 213.251C260.416 208.233 257.554 205.971 251.15 203.22Z" fill="#282828"/>
<path d="M194.031 226.5C200.531 233 212.531 233 219.531 226.5M119.531 227C113.031 233.5 101.031 233.5 94.0306 227" stroke="black" stroke-width="6" stroke-linecap="round"/>
<path d="M219.772 224.56C219.772 232.845 213.951 239.56 206.772 239.56C199.592 239.56 193.772 232.845 193.772 224.56C193.772 216.276 199.592 209.56 206.772 209.56C213.951 209.56 219.772 216.276 219.772 224.56Z" fill="black"/>
<path d="M120.08 224.56C120.08 232.845 114.26 239.56 107.08 239.56C99.9003 239.56 94.08 232.845 94.08 224.56C94.08 216.276 99.9003 209.56 107.08 209.56C114.26 209.56 120.08 216.276 120.08 224.56Z" fill="black"/>
<path d="M117.926 356.28C131.055 361.185 182.994 361.587 195.926 349.493" stroke="#A57363" stroke-width="6" stroke-linecap="round"/>
<path d="M190.954 185.775C188.783 177.307 189.778 173.703 196.938 170.06C245.508 172.04 252.888 178.554 254.936 192.06C235.444 182.964 219.154 184.345 190.954 185.775Z" fill="#493E3D"/>
<path d="M115.918 185.775C118.089 177.307 117.094 173.703 109.934 170.06C61.3645 172.04 53.9846 178.554 51.936 192.06C71.4282 182.964 87.7185 184.345 115.918 185.775Z" fill="#493E3D"/>
<path d="M171.649 328.769C176.497 333.085 177.523 333.892 180.938 338.655M199.54 323.826C204.387 328.142 205.413 328.949 208.828 333.712M185.594 328.769C190.442 333.085 191.468 333.892 194.883 338.655M140.006 328.769C135.159 333.085 134.132 333.892 130.718 338.655M112.116 323.826C107.269 328.142 106.242 328.949 102.828 333.712M126.061 328.769C121.214 333.085 120.187 333.892 116.773 338.655M145.703 371.858C147.476 374.328 148.055 375.795 148.184 378.592M165.953 371.027C164.674 373.788 164.379 375.339 164.775 378.11M156.457 370.927C155.647 373.862 155.611 375.44 156.457 378.108M132.112 417.207C132.811 420.62 133.832 423.666 135.247 426.738M141.934 423.072C142.497 426.983 144.307 430.262 145.696 433.826M149.458 415.496C149.909 418.287 150.67 420.476 151.548 423.072M161.579 423.561C161.296 426.505 161.317 429.187 161.37 432.115M169.312 413.785C169.483 416.539 169.318 418.904 169.103 421.606M178.716 425.028C177.744 428.043 176.265 430.672 174.745 433.337M188.747 415.252C187.94 418.611 186.955 421.602 185.822 424.783" stroke="#493E3D" stroke-width="4" stroke-linecap="round"/>
<path d="M176.325 290.154C160.475 295.154 151.312 294.978 134.548 290.154C134.548 290.154 134.798 300.053 143.28 304.676C151.762 309.299 157.171 309.328 167.935 304.676C178.7 300.024 176.325 290.154 176.325 290.154Z" fill="#B77F6E"/>
<path d="M313.99 275.751C308.89 292.732 295.83 303.009 284.821 298.705C273.812 294.401 269.021 277.146 274.122 260.165C279.222 243.184 292.282 232.907 303.291 237.211C314.3 241.515 319.09 258.77 313.99 275.751Z" fill="#E0A788"/>
<path d="M282.821 265.97C280.579 257.45 317.191 260.158 305.835 261.968C294.478 263.779 288.814 265.079 287.453 270.937C287.453 270.937 283.552 268.748 282.821 265.97Z" fill="#B77F6E"/>
<path d="M2.07123 275.52C7.17162 292.501 20.2311 302.777 31.2404 298.473C42.2498 294.169 47.0399 276.914 41.9395 259.933C36.8391 242.952 23.7796 232.676 12.7703 236.98C1.76096 241.284 -3.02917 258.539 2.07123 275.52Z" fill="#E0A788"/>
<path d="M33.2402 265.739C35.4819 257.219 -1.12993 259.927 10.2267 261.737C21.5833 263.548 27.2471 264.847 28.6084 270.706C28.6084 270.706 32.5094 268.517 33.2402 265.739Z" fill="#B77F6E"/>
<path d="M296.365 299.453C296.365 303.069 293.391 306 289.722 306C286.053 306 283.078 303.069 283.078 299.453C283.078 295.838 286.053 292.906 289.722 292.906C293.391 292.906 296.365 295.838 296.365 299.453Z" fill="#282828"/>
<path d="M33.1948 299.453C33.1948 303.069 30.2204 306 26.5513 306C22.8822 306 19.9078 303.069 19.9078 299.453C19.9078 295.838 22.8822 292.906 26.5513 292.906C30.2204 292.906 33.1948 295.838 33.1948 299.453Z" fill="#282828"/>
</svg>
